<?xml version="1.0" encoding="UTF-8"?>
<svg id="Capa_1" data-name="Capa 1" xmlns="http://www.w3.org/2000/svg" viewBox="0 0 32.4 11.74">
  <defs>
    <style>
      .cls-1 {
        fill: #7235f6;
      }

      .cls-2 {
        fill: #fff;
      }
    </style>
  </defs>
  <g>
    <path class="cls-1" d="M9.23,0h-4.27C2.22,0,0,2.22,0,4.95h0c0,2.1,1.31,3.89,3.16,4.61v1.76h0s0,0,0,0c0,.23.19.42.42.42.09,0,.17-.03.24-.07h.02l2.61-1.77h2.78c2.74,0,4.96-2.22,4.96-4.95h0c0-2.73-2.22-4.95-4.96-4.95Z"/>
    <circle class="cls-2" cx="6.21" cy="5.17" r=".92"/>
    <circle class="cls-2" cx="9.77" cy="5.17" r=".92"/>
  </g>
  <g>
    <path class="cls-2" d="M18.34,9.36c-.38,0-.73-.09-1.06-.28-.33-.19-.59-.46-.79-.83s-.3-.81-.3-1.32v-.15c0-.52.1-.96.3-1.32.2-.36.46-.64.79-.83.33-.19.68-.28,1.06-.28.29,0,.53.03.72.1.19.07.35.15.47.25.12.1.21.21.28.33h.17v-2.5h1.21v6.71h-1.19v-.58h-.17c-.11.18-.28.34-.5.49-.23.15-.56.22-.99.22ZM18.7,8.31c.37,0,.68-.12.93-.36.25-.24.37-.59.37-1.05v-.1c0-.46-.12-.81-.37-1.05s-.56-.36-.94-.36-.68.12-.93.36c-.25.24-.37.59-.37,1.05v.1c0,.46.12.81.37,1.05.25.24.56.36.93.36Z"/>
    <path class="cls-2" d="M23.14,3.91c-.22,0-.4-.07-.55-.21s-.22-.33-.22-.56.07-.42.22-.56.33-.21.55-.21.41.07.56.21c.15.14.22.33.22.56s-.07.42-.22.56c-.15.14-.33.21-.56.21ZM22.54,9.23v-4.76h1.21v4.76h-1.21Z"/>
    <path class="cls-2" d="M25.09,9.23V2.51h1.21v6.71h-1.21Z"/>
    <path class="cls-2" d="M29.91,9.36c-.47,0-.9-.1-1.28-.29-.38-.19-.67-.47-.89-.83-.22-.36-.33-.8-.33-1.31v-.15c0-.51.11-.95.33-1.31.22-.36.51-.64.89-.83.38-.19.8-.29,1.28-.29s.9.1,1.28.29c.38.19.67.47.89.83.22.36.33.8.33,1.31v.15c0,.51-.11.95-.33,1.31-.22.36-.51.64-.89.83-.38.19-.8.29-1.28.29ZM29.91,8.29c.37,0,.68-.12.92-.36.24-.24.37-.58.37-1.03v-.1c0-.45-.12-.79-.36-1.03-.24-.24-.55-.36-.92-.36s-.68.12-.92.36-.36.58-.36,1.03v.1c0,.45.12.79.36,1.03.24.24.55.36.92.36Z"/>
  </g>
</svg>